<?xml version="1.0" encoding="UTF-8"?>
<svg width="95px" height="48px" viewBox="0 0 95 48" version="1.1" xmlns="http://www.w3.org/2000/svg" xmlns:xlink="http://www.w3.org/1999/xlink">
    <!-- Generator: Sketch 55.2 (78181) - https://sketchapp.com -->
    <title>Group 2</title>
    <desc>Created with Sketch.</desc>
    <defs>
        <linearGradient x1="9.03581614%" y1="64.6626604%" x2="90.9523429%" y2="35.3371685%" id="linearGradient-1">
            <stop stop-color="#0082E6" offset="0%"></stop>
            <stop stop-color="#0288E7" offset="16%"></stop>
            <stop stop-color="#0698EB" offset="37%"></stop>
            <stop stop-color="#0DB3F1" offset="61%"></stop>
            <stop stop-color="#18D9FA" offset="86%"></stop>
            <stop stop-color="#1EF0FF" offset="100%"></stop>
        </linearGradient>
    </defs>
    <g id="Page-1" stroke="none" stroke-width="1" fill="none" fill-rule="evenodd">
        <g id="page-4" transform="translate(-1052.000000, -345.000000)" fill-rule="nonzero">
            <g id="Group-5" transform="translate(469.000000, 337.000000)">
                <g id="Group-2" transform="translate(583.000000, 8.000000)">
                    <path d="M40.1138879,7.19472123 C47.8166473,0.330296448 57.0104663,-2.06757966 63.0963383,1.96357078 L63.0963383,1.96357078 C64.7917632,3.09422836 66.1654638,4.65460472 67.0808857,6.48958848 C74.6074862,0.168880519 83.3776848,-1.92740267 89.2496495,1.96357078 C97.1558305,7.19896901 96.8286782,21.2910044 88.5156539,33.4524203 C80.2026296,45.6138363 67.0578173,51.2145442 59.1558305,45.9833938 C57.460684,44.8518279 56.0882366,43.2897679 55.1754773,41.4531283 C47.6467798,47.7717124 38.8807753,49.8679956 33.0046164,45.979146 C31.0969984,44.6968058 29.6000505,42.8788721 28.6971109,40.7479956 C20.9964486,47.6124203 11.8026296,50.0102964 5.72095194,45.9812699 C-2.18522908,40.7458717 -1.85597963,26.6538363 6.45494752,14.4924203 C14.7658747,2.33100441 27.9127842,-3.27395134 35.8147709,1.96144689 C35.8126738,1.96357078 38.4907091,4.0492345 40.1138879,7.19472123 Z" id="Path" fill="url(#linearGradient-1)"></path>
                    <path d="M32.692144,16.9179071 C32.2394164,16.6761804 31.7104057,16.6265315 31.2215274,16.7798865 C30.7326492,16.9332414 30.323965,17.2770333 30.0854111,17.7356062 L25.9561617,25.6704734 L21.7933581,17.7313584 C21.2890433,16.7874797 20.1274496,16.4321908 19.1915594,16.9355636 C18.2556693,17.4389364 17.8958072,18.6125471 18.3855215,19.5642787 L23.7793405,29.8545442 L23.0977731,31.1628628 C22.4191052,32.4738708 21.09821,33.3154387 19.6375082,33.3674646 C18.5719522,33.385646 17.7227017,34.2752126 17.740654,35.3543672 C17.7586063,36.4335219 18.6369633,37.2936106 19.7025193,37.2754292 L19.7717246,37.2754292 C22.6175665,37.1741676 25.1915317,35.5359924 26.5160954,32.9830398 L33.4995391,19.560031 C33.7388846,19.1013186 33.7882729,18.5650358 33.6368164,18.0694085 C33.4853598,17.5737812 33.145494,17.1595043 32.692144,16.9179071 L32.692144,16.9179071 Z" id="Path" fill="#FFFFFF"></path>
                    <path d="M49.4755049,24.7125973 C49.4849617,21.0499576 47.0468204,17.8446294 43.5476001,16.9194509 C40.0483797,15.9942723 36.3743104,17.5835588 34.6147986,20.7834989 C32.8552869,23.9834391 33.4559554,27.9836 36.07521,30.5091302 C38.6944646,33.0346604 42.6689398,33.4459314 45.7383912,31.5090575 C46.0599408,32.3987267 46.9658828,32.9260743 47.8867933,32.7596394 C48.8077039,32.5932046 49.477623,31.7810539 49.4755049,30.8336593 L49.4755049,24.7125973 Z M41.5567135,28.8223318 C39.3155713,28.8223318 37.4987665,26.982341 37.4987665,24.7125973 C37.4987665,22.4428536 39.3155713,20.6028628 41.5567135,20.6028628 C43.7978558,20.6028628 45.6146605,22.4428536 45.6146605,24.7125973 C45.6123487,26.9813705 43.7968975,28.8199905 41.5567135,28.8223318 L41.5567135,28.8223318 Z" id="Shape" fill="#FFFFFF"></path>
                    <path d="M64.8096937,10.6778886 L64.8096937,10.6778886 C63.7441377,10.6778886 62.8803338,11.5527347 62.8803338,12.6318894 L62.8803338,17.8290575 C59.5397578,15.8026274 55.2403004,16.5358544 52.7392293,19.5585157 C50.2381582,22.581177 50.2773931,26.996628 52.8317725,29.9732135 C55.3861518,32.9497991 59.6979425,33.6045426 63.0019674,31.5175531 C63.2819148,32.2835536 64.0031995,32.7919079 64.8096937,32.7919079 L64.8096937,32.7919079 C65.3235713,32.7941534 65.8171081,32.588704 66.1808713,32.2210958 C66.5446346,31.8534876 66.748564,31.3540987 66.7474466,30.8336593 L66.7474466,12.6318894 C66.7474466,12.1121857 66.5430245,11.6138909 66.179383,11.2472029 C65.8157416,10.8805149 65.3228436,10.6756475 64.8096937,10.6778886 L64.8096937,10.6778886 Z M58.8223868,28.8223318 C56.5812446,28.8223318 54.7644398,26.982341 54.7644398,24.7125973 C54.7644398,22.4428536 56.5812446,20.6028628 58.8223868,20.6028628 C61.0635291,20.6028628 62.8803338,22.4428536 62.8803338,24.7125973 C62.878022,26.9813705 61.0625708,28.8199905 58.8223868,28.8223318 L58.8223868,28.8223318 Z" id="Shape" fill="#FFFFFF"></path>
                    <path d="M77.1869564,12.6318894 C77.1869564,12.5681726 77.1869564,12.5044557 77.1869564,12.438615 C77.1869564,12.4110044 77.1869564,12.3812699 77.1743736,12.3536593 C77.1617908,12.3260487 77.1743736,12.2835708 77.1596937,12.2495885 C77.1450137,12.2156062 77.1429166,12.1858717 77.1366252,12.1518894 C77.1303338,12.1179071 77.1219453,12.0945442 77.1135568,12.0648097 C77.1051683,12.0350752 77.0925855,12.0010929 77.0800027,11.9713584 C77.0674199,11.9416239 77.0611285,11.9118894 77.0506429,11.8842787 C77.0401572,11.8566681 77.0233802,11.8269336 77.0107974,11.799323 L76.9688548,11.7101195 C76.9541749,11.6825088 76.9373979,11.6570221 76.9227179,11.6315354 L76.8723868,11.5465796 L76.8094729,11.4616239 C76.7938825,11.4380921 76.7770823,11.415406 76.7591418,11.3936593 C76.6782816,11.2940674 76.5884138,11.2023417 76.4907091,11.119677 L76.4236009,11.0708274 C76.3963383,11.0495885 76.3669784,11.0262257 76.3376186,11.0071106 L76.2558305,10.9561372 L76.1761396,10.9072876 L76.0901572,10.8669336 L76.0041749,10.8265796 C75.9769122,10.8138363 75.9475524,10.8053407 75.9202897,10.7947212 L75.8259188,10.7628628 C75.7978952,10.7528432 75.7691488,10.7450323 75.7399365,10.7395 L75.6434685,10.7161372 L75.5428062,10.699146 L75.4568239,10.6864026 C75.3932508,10.6831794 75.3295582,10.6831794 75.2659851,10.6864026 L75.2659851,10.6864026 C75.2030711,10.6864026 75.1401572,10.6864026 75.0772433,10.6864026 L74.9933581,10.699146 C74.9577069,10.699146 74.9241528,10.699146 74.8905987,10.7161372 L74.7941307,10.7395 C74.7642896,10.7452906 74.7348641,10.7530956 74.7060513,10.7628628 C74.6745943,10.7628628 74.6452345,10.7841018 74.6158747,10.7947212 L74.5277952,10.8265796 L74.4460071,10.8648097 C74.4166473,10.879677 74.3851903,10.8924203 74.3579277,10.9094115 C74.330665,10.9264026 74.3054994,10.939146 74.2803338,10.9540133 L74.1943515,11.0071106 L74.1125634,11.0687035 L74.0433581,11.119677 C73.9944251,11.159323 73.9482882,11.2018009 73.9049475,11.2471106 L73.9049475,11.2471106 L73.4582588,11.6931283 L71.1136672,14.0548982 L70.4845281,14.6920664 C69.73257,15.4548817 69.73257,16.690313 70.4845281,17.4531283 L70.4845281,17.4531283 C71.237731,18.2146829 72.4575945,18.2146829 73.2107974,17.4531283 L73.3135568,17.3490575 L73.3135568,30.8336593 C73.3135568,31.3518876 73.5168281,31.8488907 73.8786532,32.2153334 C74.2404784,32.5817762 74.7312186,32.7876416 75.2429166,32.7876416 L75.2429166,32.7876416 C76.3096308,32.7876416 77.1743736,31.911863 77.1743736,30.8315354 L77.1743736,12.6318894 L77.1869564,12.6318894 Z" id="Path" fill="#FFFFFF"></path>
                </g>
            </g>
        </g>
    </g>
</svg>