<svg xmlns="http://www.w3.org/2000/svg" width="51" height="14" viewBox="0 0 51 14">
  <defs>
    <linearGradient id="yadata_logo-01-a" x1=".003%" x2="139.237%" y1="50%" y2="50%">
      <stop offset="0%" stop-color="#FF7200"/>
      <stop offset="16%" stop-color="#FF7B01"/>
      <stop offset="43%" stop-color="#FF9303"/>
      <stop offset="76%" stop-color="#FFBB06"/>
      <stop offset="100%" stop-color="#FFDB08"/>
    </linearGradient>
  </defs>
  <g fill="none" transform="translate(.064)">
    <path fill="url(#yadata_logo-01-a)" d="M12.7285189,3.32322527 C10.9835261,3.32004666 9.42694106,4.39554585 8.84687834,6.00519386 C8.26681562,7.61484186 8.7899027,9.40725312 10.1512954,10.4749118 C11.512688,11.5425705 13.4151947,11.6524071 14.8955572,10.7488103 L15.3032927,10.4995679 L15.4712948,10.9408193 C15.5911266,11.2515773 15.9206641,11.4344086 16.2548666,11.3755542 C16.5890691,11.3166997 16.8327075,11.0329298 16.8341882,10.7008081 L16.8341882,7.33880471 C16.8310689,5.12233027 14.9947241,3.32628322 12.7285189,3.32322527 L12.7285189,3.32322527 Z M12.7285189,9.97892882 C11.6365584,9.97967502 10.6516947,9.33690333 10.2332903,8.35041615 C9.81488586,7.36392898 10.0453654,6.22806212 10.8172282,5.47260925 C11.5890909,4.71715637 12.7502816,4.49094002 13.7591949,4.89947255 C14.7681083,5.30800509 15.4259908,6.2708065 15.4259908,7.33880471 C15.4239142,8.79534208 14.2177346,9.97587818 12.7285189,9.97892882 L12.7285189,9.97892882 Z M8.37745317,3.80879349 C8.43243959,3.98367809 8.41480804,4.17270575 8.3283739,4.33497194 L4.36427934,11.6977778 C3.66963686,12.9822712 2.32314972,13.8028907 0.838122849,13.8468264 C0.458485693,13.8499562 0.146186751,13.5551847 0.135911813,13.1840011 C0.12928885,13.0013303 0.197189987,12.8235782 0.324655774,12.6899057 C0.452121561,12.5562333 0.628693589,12.4776081 0.815470881,12.4713524 C1.78606996,12.4384638 2.66391035,11.8985051 3.11464572,11.0571324 L3.59788773,10.154321 L0.434162737,4.33497194 C0.345117655,4.17440125 0.324754787,3.98586298 0.377532815,3.81063973 C0.433535078,3.63662224 0.556810955,3.4908775 0.721087677,3.40446689 C0.823813458,3.35061839 0.938655835,3.32269648 1.05520422,3.32322475 C1.12562509,3.32358844 1.19560192,3.33416572 1.26284727,3.35461841 C1.44190112,3.40839122 1.59146964,3.53007483 1.67813336,3.69248036 L4.39070664,8.68840629 L7.08062795,3.69248036 C7.21439754,3.4468195 7.4858905,3.30372728 7.76923708,3.32954421 C8.05258366,3.35536115 8.29238064,3.54503921 8.37745317,3.81063973 L8.37745317,3.80879349 Z"/>
    <path fill="#363636" d="M25.3947448.0369248036C25.2090075.0369248036 25.0308775.109089509 24.8995414.23754351 24.7682053.36599751 24.6944214.540218521 24.6944214.72187991L24.6944214 4.24635241 24.0998073 3.89741302C22.3722363 2.88291935 20.1468527 3.24798438 18.8522528 4.75825276 17.5576529 6.26852114 17.5783871 8.47537974 18.9011451 9.96212452 20.2239031 11.4488693 22.4557701 11.7738746 24.1639878 10.7285017L24.5698356 10.4792593 24.7378377 10.9205107C24.8573697 11.2300632 25.1855857 11.4122472 25.5186006 11.3538914 25.8516155 11.2955355 26.0947437 11.0132321 26.0969558 10.6823457L26.0969558.712648709C26.0907713.337671813 25.7781849.0369248036 25.3947448.0369248036zM21.9969495 9.96785073C20.9074509 9.96785073 19.9252313 9.32595477 19.5082983 8.34147792 19.0913652 7.35700108 19.3218265 6.22381922 20.0922183 5.47033326 20.8626102 4.71684731 22.0212171 4.49144342 23.0277825 4.89922708 24.034348 5.30701074 24.6906461 6.26767594 24.6906461 7.33326599 24.6906461 8.78716635 23.4872429 9.96664256 22.0007248 9.96969697L21.9969495 9.96785073zM45.9834969 3.32323232C44.2425171 3.32323232 42.6911967 4.39812633 42.1137783 6.00452063 41.53636 7.61091492 42.0586496 9.39881379 43.416613 10.4643765 44.7745763 11.5299392 46.6723449 11.6410045 48.1505352 10.7414254L48.5601583 10.4940292 48.7243851 10.9352806C48.8422969 11.2478422 49.1725589 11.4325605 49.5077868 11.3734436 49.8430146 11.3143267 50.0865177 11.0284259 50.0853948 10.6952694L50.0853948 7.33695847C50.0833114 5.12180237 48.248353 3.32628537 45.9834969 3.32323232zM45.9834969 9.96969762C44.8921281 9.97044368 43.9078334 9.32792191 43.489832 8.34189787 43.0718305 7.35587384 43.3024947 6.22065621 44.0742092 5.46587669 44.8459236 4.71109716 46.006612 4.48549472 47.0147593 4.89432337 48.0229067 5.30315201 48.6798446 6.26584682 48.6790818 7.33326599 48.6770017 8.78848333 47.4713648 9.96766312 45.9834969 9.96969762L45.9834969 9.96969762zM41.2077068 10.1764759C41.0448316 10.1835504 40.8830179 10.2058061 40.7244648 10.2429405 39.8957802 10.4127946 39.5012584 10.3094052 39.2256595 10.0140067 39.0527789 9.82017181 38.9447419 9.57920141 38.9160826 9.32351291 38.8827631 9.02557946 38.8682635 8.72591966 38.8726663 8.42624018L38.8726663 4.21127385 39.7145645 4.21127385C40.0272211 4.23021426 40.3402072 4.17972061 40.6300816 4.06357464 40.7112511 4.02480359 40.7999713 3.96203143 40.7999713 3.74417508 40.806064 3.62183892 40.7546058 3.50349767 40.6602842 3.42292929 40.5120139 3.31730831 40.3295027 3.26808791 40.1468396 3.28446128L38.8726663 3.28446128 38.8726663 1.4382211C38.8794158 1.15711709 38.8604638.875985574 38.8160364.598181818 38.793148.467152784 38.726815.347129711 38.62727.256627385 38.3787115.0103672148 37.9929387-.0439650317 37.6834379.123698092 37.5707147.179181884 37.4759577.264189615 37.4097266.369248036 37.3397312.493105477 37.2984841.630520081 37.2889161.771728395 37.2681518.974814815 37.2587135 1.26098204 37.2587135 1.62284512L37.2587135 3.28446128 36.6018064 3.28446128C36.397667 3.26771143 36.1938185 3.31983566 36.0241812 3.43216049 35.9263038 3.50652545 35.8719794 3.62314041 35.8788311 3.74417508 35.87363 3.86819183 35.9264293 3.98778077 36.0222936 4.06911336 36.1752217 4.17720983 36.3629023 4.22768938 36.5508395 4.21127385L37.2587135 4.21127385 37.2587135 8.61640292C37.2435814 9.16947083 37.30003 9.72219001 37.4267156 10.2614029 37.5115686 10.5931462 37.7247373 10.8797382 38.0213298 11.0608249 38.3422327 11.2657576 38.8424637 11.369147 39.5125844 11.369147 40.2412228 11.369147 40.796196 11.2805275 41.1586275 11.1088272 41.521059 10.9371268 41.5720259 10.7395791 41.5720259 10.5844949 41.5760549 10.474692 41.5329326 10.3682479 41.4531031 10.2909428 41.3915922 10.2204904 41.3023973 10.1788847 41.2077068 10.1764759zM31.2710431 3.32323232C29.4004377 3.32396345 27.7672821 4.56238596 27.3005312 6.33407306 26.8337802 8.10576016 27.6516778 9.96188309 29.2889958 10.8466611 30.5930462 11.539942 32.1762619 11.4998225 33.4418568 10.7414254L33.8495922 10.4940292 34.0175943 10.9334343C34.1353863 11.2456638 34.4651093 11.430365 34.8000636 11.3717507 35.1350178 11.3131364 35.3788061 11.0280754 35.3786025 10.6952694L35.3786025 7.33695847C35.380737 5.39042061 33.9507796 3.72459393 31.9902431 3.38969697 31.7529467 3.34709595 31.5122981 3.32485649 31.2710431 3.32323232zM33.9666274 7.33695847C33.9635063 8.79115489 32.7578701 9.96868254 31.2710431 9.96969697 29.7840345 9.96564011 28.5796067 8.78764289 28.5754588 7.33326599 28.5754588 5.87720537 29.782313 4.69683502 31.2710431 4.69683502 32.7597732 4.69683502 33.9666274 5.87720537 33.9666274 7.33326599L33.9666274 7.33695847z"/>
  </g>
</svg>
